
nColumns=19
nRows=104
DataType=double
version=3
OpenSimVersion=4.4-2022-10-11-798caa840
endheader
time	ground_force_calcn_r_vx	ground_force_calcn_r_vy	ground_force_calcn_r_vz	ground_force_calcn_r_px	ground_force_calcn_r_py	ground_force_calcn_r_pz	ground_force_calcn_r_mx	ground_force_calcn_r_my	ground_force_calcn_r_mz	ground_force_calcn_l_vx	ground_force_calcn_l_vy	ground_force_calcn_l_vz	ground_force_calcn_l_px	ground_force_calcn_l_py	ground_force_calcn_l_pz	ground_force_calcn_l_mx	ground_force_calcn_l_my	ground_force_calcn_l_mz
0.93	-3.62961	20.674	-13.503	-0.483259	0	-0.446374	0.173623	-0.988943	0.645918	0	0	0	0	0	0	0	0	0
0.9399999999999999	-61.8826	660.783	-85.9395	-0.291967	0	-0.445197	0.0164284	-0.175422	0.0228149	0	0	0	0	0	0	0	0	0
0.95	-194.193	1597.28	-122.723	-0.27266	0	-0.447012	0.126338	-1.03916	0.079841	0	0	0	0	0	0	0	0	0
0.96	-271.122	1415.27	-37.0027	-0.261763	0	-0.451242	-0.590391	3.08187	-0.0805766	0	0	0	0	0	0	0	0	0
0.97	-241.61	705.726	-29.0189	-0.245383	0	-0.4509	-1.41606	4.1362	-0.170077	-70.1741	143.053	50.1449	-0.224464	0	-0.7136980000000001	-0.0608276	0.124	0.0434661
0.98	-306.506	472.079	-101.197	-0.203461	0	-0.436349	-0.960723	1.4797	-0.317196	-117.252	417.208	58.092	-0.234468	0	-0.705379	-0.324057	1.15307	0.160553
0.99	-335.117	607.848	-125.188	-0.196536	0	-0.434942	-0.945933	1.71577	-0.353368	-23.3161	375.18	-55.1672	-0.246831	0	-0.681025	-0.08437749999999999	1.35772	-0.199642
1	-271.742	779.3	-109.412	-0.205167	0	-0.437754	-0.0826062	0.236898	-0.0332598	-5.83949	252.202	-59.3616	-0.234739	0	-0.670403	-0.07069979999999999	3.05346	-0.718703
1.01	-225.33	810.004	-92.34059999999999	-0.203542	0	-0.438067	0.417113	-1.49941	0.170933	-53.5186	195.638	-10.7032	-0.20272	0	-0.684117	-0.696904	2.54754	-0.139374
1.02	-205.122	791.4349999999999	-90.56229999999999	-0.19869	0	-0.436922	0.527121	-2.03383	0.232727	-80.2846	179.014	-4.72136	-0.17808	0	-0.684329	-0.506578	1.12954	-0.0297908
1.03	-185.03	815.619	-80.54219999999999	-0.199017	0	-0.437592	0.608396	-2.68183	0.26483	-94.44159999999999	191.214	-9.1035	-0.168754	0	-0.6823	-0.551531	1.11667	-0.0531637
1.04	-161.13	821.938	-66.172	-0.201224	0	-0.438306	0.712962	-3.63687	0.292795	-106.294	229.609	-7.75712	-0.172122	0	-0.682594	-0.6287199999999999	1.35812	-0.0458829
1.05	-135.836	767.5700000000001	-49.1089	-0.20213	0	-0.438139	0.786042	-4.44171	0.284179	-96.8707	299.166	-9.94896	-0.186953	0	-0.681633	-0.644153	1.98934	-0.0661567
1.06	-106.876	708.337	-41.2392	-0.202701	0	-0.437193	0.662081	-4.38805	0.255471	-64.4139	388.488	-8.393509999999999	-0.202358	0	-0.681178	-0.42003	2.53325	-0.0547324
1.07	-75.5377	677.801	-44.7581	-0.202009	0	-0.435955	0.373374	-3.35029	0.221234	-38.3728	461.032	4.2422	-0.208297	0	-0.682746	-0.195195	2.34517	0.0215792
1.08	-60.0046	659.9829999999999	-44.3092	-0.197765	0	-0.435441	0.221704	-2.4385	0.163713	-42.1062	487.466	10.8443	-0.203613	0	-0.683728	-0.163014	1.88723	0.0419837
1.09	-57.13	664.008	-39.5247	-0.192712	0	-0.4359	0.202376	-2.35217	0.140012	-65.29519999999999	472.278	5.73371	-0.191727	0	-0.683169	-0.285082	2.06199	0.0250336
1.1	-54.2493	688.486	-34.5327	-0.189773	0	-0.436927	0.229364	-2.91089	0.146003	-83.0305	450.462	-2.4114	-0.179254	0	-0.682207	-0.497109	2.69694	-0.0144372
1.11	-48.9288	706.104	-26.9299	-0.187727	0	-0.438083	0.256829	-3.70636	0.141356	-88.8526	446.253	-5.69533	-0.171092	0	-0.681848	-0.616316	3.09538	-0.039505
1.12	-46.6408	707.217	-19.8353	-0.185323	0	-0.438732	0.290415	-4.40359	0.123507	-89.7714	460.536	-3.57151	-0.167269	0	-0.682125	-0.582619	2.98889	-0.0231792
1.13	-44.9516	698.817	-15.4232	-0.183215	0	-0.438976	0.317146	-4.93035	0.108815	-88.4121	484.959	0.490281	-0.166569	0	-0.682623	-0.487744	2.67538	0.00270474
1.14	-40.7886	688.0359999999999	-10.8673	-0.181977	0	-0.439272	0.320991	-5.41459	0.0855218	-81.4187	517.203	3.62162	-0.16881	0	-0.683102	-0.397123	2.52268	0.0176646
1.15	-34.8437	673.227	-6.13371	-0.181133	0	-0.439613	0.298874	-5.77464	0.0526123	-69.01000000000001	550.149	6.66115	-0.172371	0	-0.683719	-0.312473	2.49104	0.0301613
1.16	-27.6516	653.885	-3.65542	-0.180346	0	-0.439806	0.25135	-5.94375	0.0332274	-57.1783	571.984	9.047040000000001	-0.174925	0	-0.684368	-0.251245	2.51333	0.0397532
1.17	-20.6939	638.449	-2.06671	-0.180076	0	-0.440375	0.203612	-6.28186	0.0203348	-51.6624	577.275	10.7359	-0.175517	0	-0.685142	-0.222975	2.49152	0.0463362
1.18	-15.2824	631.3099999999999	1.12325	-0.180574	0	-0.441658	0.169956	-7.02083	-0.0124917	-50.0441	570.548	13.4158	-0.174961	0	-0.686162	-0.205638	2.34445	0.0551271
1.19	-13.0428	625.939	5.71752	-0.181161	0	-0.443311	0.165943	-7.96382	-0.072744	-46.8608	561.091	17.5335	-0.174678	0	-0.687461	-0.18501	2.21523	0.0692236
1.2	-13.7218	616.793	9.703340000000001	-0.181401	0	-0.445154	0.19434	-8.735569999999999	-0.137427	-40.8341	555.023	21.1113	-0.175594	0	-0.6886330000000001	-0.160986	2.18814	0.08322980000000001
1.21	-14.9533	603.215	11.6343	-0.181501	0	-0.446896	0.225631	-9.10191	-0.17555	-31.7786	553.454	23.2382	-0.177904	0	-0.689558	-0.131122	2.28361	0.0958833
1.22	-15.3882	587.465	12.0667	-0.181933	0	-0.448476	0.239111	-9.128349999999999	-0.187499	-21.0251	553.403	24.9732	-0.180954	0	-0.690403	-0.0948657	2.49697	0.11268
1.23	-14.9209	571.617	12.7434	-0.182631	0	-0.450258	0.233523	-8.946210000000001	-0.199443	-11.7746	551.8049999999999	26.0833	-0.183994	0	-0.690868	-0.0602106	2.82171	0.13338
1.24	-13.1639	556.559	13.9339	-0.183773	0	-0.451935	0.204968	-8.66587	-0.216957	-4.52901	547.925	25.6269	-0.186555	0	-0.691344	-0.0268914	3.25336	0.152162
1.25	-10.2989	542.124	14.5256	-0.185215	0	-0.45341	0.157576	-8.294650000000001	-0.222245	2.031	542.294	25.2872	-0.188366	0	-0.692074	0.0132841	3.54697	0.165395
1.26	-7.33121	527.837	14.0319	-0.186412	0	-0.454726	0.108323	-7.79914	-0.20733	8.656420000000001	536.3049999999999	27.3326	-0.189058	0	-0.693082	0.058286	3.61108	0.184038
1.27	-5.36916	514.467	11.9086	-0.186944	0	-0.455863	0.0757119	-7.25462	-0.167926	14.3076	532.926	30.865	-0.188255	0	-0.694641	0.0939178	3.49822	0.202604
1.28	-6.01025	503.419	8.920959999999999	-0.186294	0	-0.456904	0.0808217	-6.76963	-0.119963	16.9503	531.215	33.5327	-0.185766	0	-0.696109	0.109094	3.41897	0.215821
1.29	-10.0611	494.651	6.59915	-0.184032	0	-0.457762	0.130451	-6.41363	-0.0855643	16.2238	526.212	34.7796	-0.181766	0	-0.697172	0.10507	3.40791	0.225243
1.3	-16.8358	488.656	4.35588	-0.179852	0	-0.457875	0.21191	-6.15062	-0.0548266	14.9771	518.992	35.6132	-0.177274	0	-0.697939	0.100243	3.47368	0.238364
1.31	-23.8812	489.35	0.286937	-0.173577	0	-0.456977	0.28695	-5.87989	-0.00344775	12.3489	514.171	36.1484	-0.172343	0	-0.6984629999999999	0.0846725	3.52551	0.247858
1.32	-33.3429	495.068	-6.90927	-0.164664	0	-0.455368	0.364622	-5.41383	0.0755566	6.79469	513.696	36.3014	-0.167038	0	-0.698604	0.0461422	3.48847	0.24652
1.33	-44.0728	499.039	-15.3562	-0.154194	0	-0.453487	0.415687	-4.70685	0.144837	0.23467	515.024	35.6342	-0.16162	0	-0.698406	0.00155307	3.40848	0.235831
1.34	-52.5402	504.984	-21.27	-0.144825	0	-0.452018	0.43737	-4.20373	0.177062	-5.44549	515.574	34.0378	-0.156568	0	-0.6977100000000001	-0.0349934	3.31315	0.218731
1.35	-59.6982	513.178	-24.1029	-0.137317	0	-0.451232	0.463105	-3.98094	0.186977	-10.5899	516.495	32.061	-0.152369	0	-0.6967100000000001	-0.0658846	3.21336	0.199467
1.36	-66.39749999999999	521.337	-24.4219	-0.131459	0	-0.450854	0.504078	-3.9579	0.185406	-16.4812	518.103	30.2143	-0.148688	0	-0.695639	-0.09573959999999999	3.00967	0.175516
1.37	-71.4746	528.547	-24.139	-0.127234	0	-0.450351	0.543316	-4.01776	0.183493	-24.2282	518.639	27.9444	-0.145144	0	-0.694535	-0.126154	2.7005	0.145504
1.38	-76.4914	533.528	-25.7871	-0.123925	0	-0.449535	0.561561	-3.9169	0.189316	-34.1129	517.194	24.5853	-0.141889	0	-0.693466	-0.159824	2.42314	0.115186
1.39	-81.8582	536.451	-29.5115	-0.121124	0	-0.448416	0.55381	-3.62935	0.199659	-45.1232	513.5119999999999	21.3661	-0.13874	0	-0.692458	-0.18307	2.08338	0.0866847
1.4	-87.413	536.891	-33.6955	-0.1185	0	-0.44737	0.5338079999999999	-3.27865	0.205769	-55.7724	506.419	18.737	-0.13572	0	-0.691604	-0.17497	1.58875	0.0587819
1.41	-93.01600000000001	534.1	-36.714	-0.116122	0	-0.446257	0.52156	-2.99481	0.205863	-65.5806	492.398	16.4679	-0.132502	0	-0.691015	-0.122078	0.916594	0.0306549
1.42	-97.6035	525.676	-38.1473	-0.113945	0	-0.445022	0.523771	-2.82094	0.20471	-72.7114	464.548	14.9349	-0.129078	0	-0.690811	-0.0296903	0.189689	0.00609839
1.43	-98.33029999999999	505.576	-39.2484	-0.111883	0	-0.443645	0.489982	-2.51929	0.195576	-71.37390000000001	414.331	15.4269	-0.125292	0	-0.691214	0.0970038	-0.563115	-0.0209667
1.44	-90.4491	465.883	-41.349	-0.109933	0	-0.44158	0.369329	-1.90233	0.16884	-54.7584	335.839	18.2911	-0.120686	0	-0.692685	0.170672	-1.04675	-0.05701
1.45	-69.12730000000001	400.144	-44.8954	-0.10795	0	-0.438248	0.171336	-0.991778	0.111276	-25.1186	231.297	19.9918	-0.115195	0	-0.695064	0.0891637	-0.821038	-0.07096520000000001
1.46	-33.5007	303.458	-44.7767	-0.105731	0	-0.43364	0.0171102	-0.154989	0.0228693	1.46196	113.459	18.4384	-0.10641	0	-0.696865	-0.00328238	-0.254736	-0.0413975
1.47	6.59939	175.154	-32.3534	-0.102536	0	-0.429274	0.00401613	0.106592	-0.019689	6.52222	20.5506	9.819240000000001	-0.0471487	0	-0.665341	-0.0272253	-0.0857832	-0.0409878
1.48	22.0263	55.3376	-11.7942	-0.0960752	0	-0.430267	-0.031109	-0.0781563	0.0166576	0	0	0	0	0	0	0	0	0
1.49	0	0	0	0	0	0	0	0	0	0	0	0	0	0	0	0	0	0
1.5	0	0	0	0	0	0	0	0	0	0	0	0	0	0	0	0	0	0
1.51	0	0	0	0	0	0	0	0	0	0	0	0	0	0	0	0	0	0
1.52	0	0	0	0	0	0	0	0	0	0	0	0	0	0	0	0	0	0
1.53	0	0	0	0	0	0	0	0	0	0	0	0	0	0	0	0	0	0
1.54	0	0	0	0	0	0	0	0	0	0	0	0	0	0	0	0	0	0
1.55	0	0	0	0	0	0	0	0	0	0	0	0	0	0	0	0	0	0
1.56	0	0	0	0	0	0	0	0	0	0	0	0	0	0	0	0	0	0
1.57	0	0	0	0	0	0	0	0	0	0	0	0	0	0	0	0	0	0
1.58	0	0	0	0	0	0	0	0	0	0	0	0	0	0	0	0	0	0
1.59	0	0	0	0	0	0	0	0	0	0	0	0	0	0	0	0	0	0
1.6	0	0	0	0	0	0	0	0	0	0	0	0	0	0	0	0	0	0
1.61	0	0	0	0	0	0	0	0	0	0	0	0	0	0	0	0	0	0
1.62	0	0	0	0	0	0	0	0	0	0	0	0	0	0	0	0	0	0
1.63	0	0	0	0	0	0	0	0	0	0	0	0	0	0	0	0	0	0
1.64	0	0	0	0	0	0	0	0	0	0	0	0	0	0	0	0	0	0
1.65	0	0	0	0	0	0	0	0	0	0	0	0	0	0	0	0	0	0
1.66	0	0	0	0	0	0	0	0	0	0	0	0	0	0	0	0	0	0
1.67	0	0	0	0	0	0	0	0	0	0	0	0	0	0	0	0	0	0
1.68	0	0	0	0	0	0	0	0	0	0	0	0	0	0	0	0	0	0
1.69	0	0	0	0	0	0	0	0	0	0	0	0	0	0	0	0	0	0
1.7	0	0	0	0	0	0	0	0	0	0	0	0	0	0	0	0	0	0
1.71	0	0	0	0	0	0	0	0	0	0	0	0	0	0	0	0	0	0
1.72	0	0	0	0	0	0	0	0	0	0	0	0	0	0	0	0	0	0
1.73	0	0	0	0	0	0	0	0	0	0	0	0	0	0	0	0	0	0
1.74	0	0	0	0	0	0	0	0	0	0	0	0	0	0	0	0	0	0
1.75	0	0	0	0	0	0	0	0	0	0	0	0	0	0	0	0	0	0
1.76	0	0	0	0	0	0	0	0	0	0	0	0	0	0	0	0	0	0
1.77	0	0	0	0	0	0	0	0	0	0	0	0	0	0	0	0	0	0
1.78	0	0	0	0	0	0	0	0	0	0	0	0	0	0	0	0	0	0
1.79	0	0	0	0	0	0	0	0	0	0	0	0	0	0	0	0	0	0
1.8	0	0	0	0	0	0	0	0	0	0	0	0	0	0	0	0	0	0
1.81	0	0	0	0	0	0	0	0	0	0	0	0	0	0	0	0	0	0
1.82	0	0	0	0	0	0	0	0	0	0	0	0	0	0	0	0	0	0
1.83	0	0	0	0	0	0	0	0	0	0	0	0	0	0	0	0	0	0
1.84	0	0	0	0	0	0	0	0	0	0	0	0	0	0	0	0	0	0
1.85	0	0	0	0	0	0	0	0	0	0	0	0	0	0	0	0	0	0
1.86	0	0	0	0	0	0	0	0	0	0	0	0	0	0	0	0	0	0
1.87	0	0	0	0	0	0	0	0	0	0	0	0	0	0	0	0	0	0
1.88	0	0	0	0	0	0	0	0	0	0	0	0	0	0	0	0	0	0
1.89	0	0	0	0	0	0	0	0	0	0	0	0	0	0	0	0	0	0
1.9	0	0	0	0	0	0	0	0	0	0	0	0	0	0	0	0	0	0
1.91	0	0	0	0	0	0	0	0	0	0	0	0	0	0	0	0	0	0
1.92	0	0	0	0	0	0	0	0	0	0	0	0	0	0	0	0	0	0
1.93	0	0	0	0	0	0	0	0	0	0	0	0	0	0	0	0	0	0
1.94	0	0	0	0	0	0	0	0	0	0	0	0	0	0	0	0	0	0
1.95	-17.3449	43.6492	-2.43308	-0.0232452	0	-0.432774	-0.0449679	0.113163	-0.00630791	0	0	0	0	0	0	0	0	0
1.96	-97.1561	194.692	-18.9403	-0.0362817	0	-0.424138	-0.205903	0.412612	-0.0401402	0	0	0	0	0	0	0	0	0
